<svg xmlns="http://www.w3.org/2000/svg" version="1.1" xmlns:xlink="http://www.w3.org/1999/xlink" xmlns:svgjs="http://svgjs.dev/svgjs" width="1500" height="1500" viewBox="0 0 1500 1500"><rect width="1500" height="1500" fill="#000000"></rect><g transform="matrix(0.6666666666666666,0,0,0.6666666666666666,250,187.66666666666674)"><svg viewBox="0 0 320 360" data-background-color="#000000" preserveAspectRatio="xMidYMid meet" height="1687" width="1500" xmlns="http://www.w3.org/2000/svg" xmlns:xlink="http://www.w3.org/1999/xlink"><g id="tight-bounds" transform="matrix(1,0,0,1,0,0)"><svg viewBox="0 0 320 360" height="360" width="320"><rect width="320" height="360" fill="url(#25d19ee4-2fc3-4284-82a4-f9ba7ec59d5a)" mask="url(#a5680ef7-3ee8-45ed-886f-335b496bb65c)" data-fill-palette-color="tertiary"></rect><g><svg></svg></g><g><svg viewBox="0 0 320 360" height="360" width="320"><g><path transform="translate(-25.80645,-5.80645) scale(10.32258,10.32258)" d="M18 33.5c8.55 0 15.5-6.95 15.5-15.5 0-8.55-6.95-15.5-15.5-15.5-8.55 0-15.5 6.95-15.5 15.5 0 8.55 6.95 15.5 15.5 15.5zM18.5 32.47v-1c7.04-0.26 12.71-5.93 12.97-12.97h1c-0.26 7.6-6.37 13.71-13.97 13.97zM18.5 3.53c7.6 0.26 13.71 6.37 13.97 13.97h-1c-0.26-7.04-5.93-12.71-12.97-12.97zM30.5 18c0 6.89-5.61 12.5-12.5 12.5-6.89 0-12.5-5.61-12.5-12.5 0-6.89 5.61-12.5 12.5-12.5 6.89 0 12.5 5.61 12.5 12.5zM17.5 3.53v1c-7.04 0.26-12.71 5.93-12.97 12.97h-1c0.26-7.6 6.37-13.71 13.97-13.97zM4.53 18.5c0.26 7.04 5.93 12.71 12.97 12.97v1c-7.6-0.26-13.71-6.37-13.97-13.97z" fill="url(#25d19ee4-2fc3-4284-82a4-f9ba7ec59d5a)" fill-rule="nonzero" stroke="none" stroke-width="1" stroke-linecap="butt" stroke-linejoin="miter" stroke-miterlimit="10" stroke-dasharray="" stroke-dashoffset="0" font-family="none" font-weight="none" font-size="none" text-anchor="none" style="mix-blend-mode: normal" data-fill-palette-color="tertiary"></path></g><g transform="matrix(1,0,0,1,64,145.9800673209511)"><svg viewBox="0 0 192 68.03986535809781" height="68.03986535809781" width="192"><g><svg viewBox="0 0 339.01799712185687 120.13926499032883" height="68.03986535809781" width="192"><g transform="matrix(1,0,0,1,147.01799712185687,0)"><svg viewBox="0 0 192 120.13926499032883" height="120.13926499032883" width="192"><g id="textblocktransform"><svg viewBox="0 0 192 120.13926499032883" height="120.13926499032883" width="192" id="textblock"><g><svg viewBox="0 0 192 120.13926499032883" height="120.13926499032883" width="192"><g transform="matrix(1,0,0,1,0,0)"><svg width="192" viewBox="4.65 -32.15 51.7 32.35" height="120.13926499032883" data-palette-color="url(#76874c72-29a4-49c0-af8a-f7067b2191c3)"></svg></g></svg></g></svg></g></svg></g><g transform="matrix(1,0,0,1,0,13.764975294775894)"><svg viewBox="0 0 118.65599999999999 92.60931440077704" height="92.60931440077704" width="118.65599999999999"><g><svg xmlns="http://www.w3.org/2000/svg" xmlns:xlink="http://www.w3.org/1999/xlink" version="1.1" x="0" y="0" viewBox="5.6 14.8 88.7 69.22908396835325" enable-background="new 0 0 100 100" xml:space="preserve" height="92.60931440077704" width="118.65599999999999" class="icon-icon-0" data-fill-palette-color="accent" id="icon-0"></svg></g></svg></g></svg></g></svg></g></svg></g><defs></defs><mask id="7384d336-2f38-4477-bbcd-ae1e31e71a47"><g id="SvgjsG1623"><svg viewBox="0 0 320 360" height="360" width="320"><g><svg></svg></g><g><svg viewBox="0 0 320 360" height="360" width="320"><g><path transform="translate(-25.80645,-5.80645) scale(10.32258,10.32258)" d="M18 33.5c8.55 0 15.5-6.95 15.5-15.5 0-8.55-6.95-15.5-15.5-15.5-8.55 0-15.5 6.95-15.5 15.5 0 8.55 6.95 15.5 15.5 15.5zM18.5 32.47v-1c7.04-0.26 12.71-5.93 12.97-12.97h1c-0.26 7.6-6.37 13.71-13.97 13.97zM18.5 3.53c7.6 0.26 13.71 6.37 13.97 13.97h-1c-0.26-7.04-5.93-12.71-12.97-12.97zM30.5 18c0 6.89-5.61 12.5-12.5 12.5-6.89 0-12.5-5.61-12.5-12.5 0-6.89 5.61-12.5 12.5-12.5 6.89 0 12.5 5.61 12.5 12.5zM17.5 3.53v1c-7.04 0.26-12.71 5.93-12.97 12.97h-1c0.26-7.6 6.37-13.71 13.97-13.97zM4.53 18.5c0.26 7.04 5.93 12.71 12.97 12.97v1c-7.6-0.26-13.71-6.37-13.97-13.97z" fill="black" fill-rule="nonzero" stroke="none" stroke-width="1" stroke-linecap="butt" stroke-linejoin="miter" stroke-miterlimit="10" stroke-dasharray="" stroke-dashoffset="0" font-family="none" font-weight="none" font-size="none" text-anchor="none" style="mix-blend-mode: normal"></path></g><g transform="matrix(1,0,0,1,64,145.9800673209511)"><svg viewBox="0 0 192 68.03986535809781" height="68.03986535809781" width="192"><g><svg viewBox="0 0 339.01799712185687 120.13926499032883" height="68.03986535809781" width="192"><g transform="matrix(1,0,0,1,147.01799712185687,0)"><svg viewBox="0 0 192 120.13926499032883" height="120.13926499032883" width="192"><g id="SvgjsG1622"><svg viewBox="0 0 192 120.13926499032883" height="120.13926499032883" width="192" id="SvgjsSvg1621"><g><svg viewBox="0 0 192 120.13926499032883" height="120.13926499032883" width="192"><g transform="matrix(1,0,0,1,0,0)"><svg width="192" viewBox="4.65 -32.15 51.7 32.35" height="120.13926499032883" data-palette-color="url(#76874c72-29a4-49c0-af8a-f7067b2191c3)"><path d="M18.1-16.7Q24.9-15.35 24.9-8.95L24.9-8.95Q24.9-4.4 21.6-2.1 18.3 0.2 11.75 0.2L11.75 0.2Q7.35 0.2 4.7 0L4.7 0 4.65 0 4.9-9.65 4.65-32.05 13.55-32.1Q18.05-32.1 20.48-30.1 22.9-28.1 22.9-24.3L22.9-24.3Q22.9-21.6 21.65-19.65 20.4-17.7 18.1-16.7L18.1-16.7ZM18.8-23.85Q18.8-26.45 17.38-27.63 15.95-28.8 12.75-28.8L12.75-28.8 8.7-28.8 8.6-18.05 14.1-17.9Q18.8-19 18.8-23.85L18.8-23.85ZM12.35-3.15Q16.45-3.15 18.65-4.7 20.85-6.25 20.85-9.15L20.85-9.15Q20.85-14.05 14.7-14.75L14.7-14.75 8.55-14.7 8.5-10 8.65-3.3Q10.6-3.15 12.35-3.15L12.35-3.15ZM56.35-32.15L56.1-9.4 56.2 0 52 0 35.4-25.65 35.15-25.65 35.1-10.55 35.15 0 31.55 0 31.7-9.5 31.6-32.05 35.75-32.05 52.3-6.4 52.65-6.4 52.6-31.85 56.35-32.15Z" opacity="1" transform="matrix(1,0,0,1,0,0)" fill="white" class="wordmark-text-0" id="SvgjsPath1620"></path></svg></g></svg></g></svg></g></svg></g><g transform="matrix(1,0,0,1,0,13.764975294775894)"><svg viewBox="0 0 118.65599999999999 92.60931440077704" height="92.60931440077704" width="118.65599999999999"><g><svg xmlns="http://www.w3.org/2000/svg" xmlns:xlink="http://www.w3.org/1999/xlink" version="1.1" x="0" y="0" viewBox="5.6 14.8 88.7 69.22908396835325" enable-background="new 0 0 100 100" xml:space="preserve" height="92.60931440077704" width="118.65599999999999" class="icon-icon-0" data-fill-palette-color="accent" id="SvgjsSvg1619"><g fill="black"><path d="M50.2 84H29.4C28.9 83.9 28 84.4 28 83.3 28 82.4 28.8 82.7 29.3 82.7 29.9 82.6 30.5 82.7 31.1 82.7 35 82.7 36.8 81.4 38 77.7 38.3 76.9 38.5 76 38.5 75.1 38.5 74.3 38.9 73.9 39.7 73.9H61.4C62.1 73.9 62.4 74.2 62.5 74.8 62.8 76.5 63.1 78.1 64 79.7 65 81.6 66.6 82.5 68.7 82.6H71.6C72.1 82.6 72.5 82.6 72.5 83.3 72.5 83.9 72.1 84 71.6 84z" fill="black"></path><path d="M49.9 14.8H91.7C93.7 14.8 94.3 15.4 94.3 17.4V69.9C94.3 72.1 93.7 72.7 91.5 72.7H8.4C6.2 72.7 5.6 72.1 5.6 69.9V17.4C5.6 15.2 6 14.8 8.2 14.8zM49.7 19H10.9C9.7 19 9.3 19.3 9.3 20.6V60.5C9.3 61.8 9.7 62.1 10.9 62.1H88.2C89.4 62.1 89.8 61.8 89.8 60.5V20.6C89.8 19.3 89.4 19 88.2 19z" fill="black"></path><path d="M46.3 53.5C43.9 53.5 43.9 53.5 44.5 51.1 46.6 43.8 48.7 36.6 50.8 29.3 51.1 28.3 51.4 27.9 52.6 27.9 56 28 56 28 55 31.3 53 38 51.1 44.7 49.1 51.4 48.5 53.5 48.5 53.5 46.3 53.5" fill="black"></path><path d="M34.7 41C37 41.9 39.2 42.9 41.5 43.7 42.6 44.1 43.1 44.6 43 45.8 42.9 48.4 43 48.4 40.6 47.4L30.4 43.2C28.5 42.4 28.5 42.4 28.5 40.4 28.5 39.7 28.7 39.3 29.4 39 33.6 37.3 37.8 35.5 42 33.8 42.7 33.5 42.9 33.6 43 34.4 43.2 37.4 43.2 37.4 40.5 38.5 38.6 39.2 36.8 40 34.9 40.8 34.8 40.7 34.8 40.8 34.7 41" fill="black"></path><path d="M65.3 40.9C63.2 40 61.3 39.2 59.5 38.5 59.4 38.5 59.3 38.5 59.2 38.4 57 37.5 56.4 36.4 56.9 34 57.1 33.2 57.4 33.6 57.8 33.8 60.3 34.8 62.8 35.9 65.3 36.9 66.9 37.6 68.5 38.3 70.1 38.9 71.3 39.3 71 40.3 71.1 41.1S71 42.4 70.1 42.8C66.1 44.4 62.2 46.1 58.2 47.7 56.9 48.3 57 48.2 56.8 46.8 56.6 45 57.1 43.9 59 43.4 61.1 42.8 63 41.9 65.3 40.9" fill="black"></path></g></svg></g></svg></g></svg></g></svg></g></svg></g><defs><mask></mask></defs></svg><rect width="320" height="360" fill="black" stroke="none" visibility="hidden"></rect></g></mask><linearGradient x1="0.054" x2="0.941" y1="0.5" y2="0.5" id="76874c72-29a4-49c0-af8a-f7067b2191c3"><stop stop-color="#864d25" offset="0"></stop><stop stop-color="#f1c4b3" offset="0.498"></stop><stop stop-color="#864d25" offset="1"></stop></linearGradient><rect width="320" height="360" fill="url(#76874c72-29a4-49c0-af8a-f7067b2191c3)" mask="url(#7384d336-2f38-4477-bbcd-ae1e31e71a47)" data-fill-palette-color="primary"></rect><mask id="b3f4a44b-48ee-4848-8f3d-44c03a273b99"><g id="SvgjsG1642"><svg viewBox="0 0 320 360" height="360" width="320"><g><svg></svg></g><g><svg viewBox="0 0 320 360" height="360" width="320"><g><path transform="translate(-25.80645,-5.80645) scale(10.32258,10.32258)" d="M18 33.5c8.55 0 15.5-6.95 15.5-15.5 0-8.55-6.95-15.5-15.5-15.5-8.55 0-15.5 6.95-15.5 15.5 0 8.55 6.95 15.5 15.5 15.5zM18.5 32.47v-1c7.04-0.26 12.71-5.93 12.97-12.97h1c-0.26 7.6-6.37 13.71-13.97 13.97zM18.5 3.53c7.6 0.26 13.71 6.37 13.97 13.97h-1c-0.26-7.04-5.93-12.71-12.97-12.97zM30.5 18c0 6.89-5.61 12.5-12.5 12.5-6.89 0-12.5-5.61-12.5-12.5 0-6.89 5.61-12.5 12.5-12.5 6.89 0 12.5 5.61 12.5 12.5zM17.5 3.53v1c-7.04 0.26-12.71 5.93-12.97 12.97h-1c0.26-7.6 6.37-13.71 13.97-13.97zM4.53 18.5c0.26 7.04 5.93 12.71 12.97 12.97v1c-7.6-0.26-13.71-6.37-13.97-13.97z" fill="black" fill-rule="nonzero" stroke="none" stroke-width="1" stroke-linecap="butt" stroke-linejoin="miter" stroke-miterlimit="10" stroke-dasharray="" stroke-dashoffset="0" font-family="none" font-weight="none" font-size="none" text-anchor="none" style="mix-blend-mode: normal"></path></g><g transform="matrix(1,0,0,1,64,145.9800673209511)"><svg viewBox="0 0 192 68.03986535809781" height="68.03986535809781" width="192"><g><svg viewBox="0 0 339.01799712185687 120.13926499032883" height="68.03986535809781" width="192"><g transform="matrix(1,0,0,1,147.01799712185687,0)"><svg viewBox="0 0 192 120.13926499032883" height="120.13926499032883" width="192"><g id="SvgjsG1641"><svg viewBox="0 0 192 120.13926499032883" height="120.13926499032883" width="192" id="SvgjsSvg1640"><g><svg viewBox="0 0 192 120.13926499032883" height="120.13926499032883" width="192"><g transform="matrix(1,0,0,1,0,0)"><svg width="192" viewBox="4.65 -32.15 51.7 32.35" height="120.13926499032883" data-palette-color="url(#76874c72-29a4-49c0-af8a-f7067b2191c3)"></svg></g></svg></g></svg></g></svg></g><g transform="matrix(1,0,0,1,0,13.764975294775894)"><svg viewBox="0 0 118.65599999999999 92.60931440077704" height="92.60931440077704" width="118.65599999999999"><g><svg xmlns="http://www.w3.org/2000/svg" xmlns:xlink="http://www.w3.org/1999/xlink" version="1.1" x="0" y="0" viewBox="5.6 14.8 88.7 69.22908396835325" enable-background="new 0 0 100 100" xml:space="preserve" height="92.60931440077704" width="118.65599999999999" class="icon-icon-0" data-fill-palette-color="accent" id="SvgjsSvg1639"><g fill="white"><path d="M50.2 84H29.4C28.9 83.9 28 84.4 28 83.3 28 82.4 28.8 82.7 29.3 82.7 29.9 82.6 30.5 82.7 31.1 82.7 35 82.7 36.8 81.4 38 77.7 38.3 76.9 38.5 76 38.5 75.1 38.5 74.3 38.9 73.9 39.7 73.9H61.4C62.1 73.9 62.4 74.2 62.5 74.8 62.8 76.5 63.1 78.1 64 79.7 65 81.6 66.6 82.5 68.7 82.6H71.6C72.1 82.6 72.5 82.6 72.5 83.3 72.5 83.9 72.1 84 71.6 84z" fill="white"></path><path d="M49.9 14.8H91.7C93.7 14.8 94.3 15.4 94.3 17.4V69.9C94.3 72.1 93.7 72.7 91.5 72.7H8.4C6.2 72.7 5.6 72.1 5.6 69.9V17.4C5.6 15.2 6 14.8 8.2 14.8zM49.7 19H10.9C9.7 19 9.3 19.3 9.3 20.6V60.5C9.3 61.8 9.7 62.1 10.9 62.1H88.2C89.4 62.1 89.8 61.8 89.8 60.5V20.6C89.8 19.3 89.4 19 88.2 19z" fill="white"></path><path d="M46.3 53.5C43.9 53.5 43.9 53.5 44.5 51.1 46.6 43.8 48.7 36.6 50.8 29.3 51.1 28.3 51.4 27.9 52.6 27.9 56 28 56 28 55 31.3 53 38 51.1 44.7 49.1 51.4 48.5 53.5 48.5 53.5 46.3 53.5" fill="white"></path><path d="M34.7 41C37 41.9 39.2 42.9 41.5 43.7 42.6 44.1 43.1 44.6 43 45.8 42.9 48.4 43 48.4 40.6 47.4L30.4 43.2C28.5 42.4 28.5 42.4 28.5 40.4 28.5 39.7 28.7 39.3 29.4 39 33.6 37.3 37.8 35.5 42 33.8 42.7 33.5 42.9 33.6 43 34.4 43.2 37.4 43.2 37.4 40.5 38.5 38.6 39.2 36.8 40 34.9 40.8 34.8 40.7 34.8 40.8 34.7 41" fill="white"></path><path d="M65.3 40.9C63.2 40 61.3 39.2 59.5 38.5 59.4 38.5 59.3 38.5 59.2 38.4 57 37.5 56.4 36.4 56.9 34 57.1 33.2 57.4 33.6 57.8 33.8 60.3 34.8 62.8 35.9 65.3 36.9 66.9 37.6 68.5 38.3 70.1 38.9 71.3 39.3 71 40.3 71.1 41.1S71 42.4 70.1 42.8C66.1 44.4 62.2 46.1 58.2 47.7 56.9 48.3 57 48.2 56.8 46.8 56.6 45 57.1 43.9 59 43.4 61.1 42.8 63 41.9 65.3 40.9" fill="white"></path></g></svg></g></svg></g></svg></g></svg></g></svg></g><defs><mask></mask></defs><mask><g id="SvgjsG1638"><svg viewBox="0 0 320 360" height="360" width="320"><g><svg></svg></g><g><svg viewBox="0 0 320 360" height="360" width="320"><g><path transform="translate(-25.80645,-5.80645) scale(10.32258,10.32258)" d="M18 33.5c8.55 0 15.5-6.95 15.5-15.5 0-8.55-6.95-15.5-15.5-15.5-8.55 0-15.5 6.95-15.5 15.5 0 8.55 6.95 15.5 15.5 15.5zM18.5 32.47v-1c7.04-0.26 12.71-5.93 12.97-12.97h1c-0.26 7.6-6.37 13.71-13.97 13.97zM18.5 3.53c7.6 0.26 13.71 6.37 13.97 13.97h-1c-0.26-7.04-5.93-12.71-12.97-12.97zM30.5 18c0 6.89-5.61 12.5-12.5 12.5-6.89 0-12.5-5.61-12.5-12.5 0-6.89 5.61-12.5 12.5-12.5 6.89 0 12.5 5.61 12.5 12.5zM17.5 3.53v1c-7.04 0.26-12.71 5.93-12.97 12.97h-1c0.26-7.6 6.37-13.71 13.97-13.97zM4.53 18.5c0.26 7.04 5.93 12.71 12.97 12.97v1c-7.6-0.26-13.71-6.37-13.97-13.97z" fill="black" fill-rule="nonzero" stroke="none" stroke-width="1" stroke-linecap="butt" stroke-linejoin="miter" stroke-miterlimit="10" stroke-dasharray="" stroke-dashoffset="0" font-family="none" font-weight="none" font-size="none" text-anchor="none" style="mix-blend-mode: normal"></path></g><g transform="matrix(1,0,0,1,64,145.9800673209511)"><svg viewBox="0 0 192 68.03986535809781" height="68.03986535809781" width="192"><g><svg viewBox="0 0 339.01799712185687 120.13926499032883" height="68.03986535809781" width="192"><g transform="matrix(1,0,0,1,147.01799712185687,0)"><svg viewBox="0 0 192 120.13926499032883" height="120.13926499032883" width="192"><g id="SvgjsG1637"><svg viewBox="0 0 192 120.13926499032883" height="120.13926499032883" width="192" id="SvgjsSvg1636"><g><svg viewBox="0 0 192 120.13926499032883" height="120.13926499032883" width="192"><g transform="matrix(1,0,0,1,0,0)"><svg width="192" viewBox="4.65 -32.15 51.7 32.35" height="120.13926499032883" data-palette-color="url(#76874c72-29a4-49c0-af8a-f7067b2191c3)"><path d="M18.1-16.7Q24.9-15.35 24.9-8.95L24.9-8.95Q24.9-4.4 21.6-2.1 18.3 0.2 11.75 0.2L11.75 0.2Q7.35 0.2 4.7 0L4.7 0 4.65 0 4.9-9.65 4.65-32.05 13.55-32.1Q18.05-32.1 20.48-30.1 22.9-28.1 22.9-24.3L22.9-24.3Q22.9-21.6 21.65-19.65 20.4-17.7 18.1-16.7L18.1-16.7ZM18.8-23.85Q18.8-26.45 17.38-27.63 15.95-28.8 12.75-28.8L12.75-28.8 8.7-28.8 8.6-18.05 14.1-17.9Q18.8-19 18.8-23.85L18.8-23.85ZM12.35-3.15Q16.45-3.15 18.65-4.7 20.85-6.25 20.85-9.15L20.85-9.15Q20.85-14.05 14.7-14.75L14.7-14.75 8.55-14.7 8.5-10 8.65-3.3Q10.6-3.15 12.35-3.15L12.35-3.15ZM56.35-32.15L56.1-9.4 56.2 0 52 0 35.4-25.65 35.15-25.65 35.1-10.55 35.15 0 31.55 0 31.7-9.5 31.6-32.05 35.75-32.05 52.3-6.4 52.65-6.4 52.6-31.85 56.35-32.15Z" opacity="1" transform="matrix(1,0,0,1,0,0)" fill="black" class="wordmark-text-0" id="SvgjsPath1635"></path></svg></g></svg></g></svg></g></svg></g><g transform="matrix(1,0,0,1,0,13.764975294775894)"><svg viewBox="0 0 118.65599999999999 92.60931440077704" height="92.60931440077704" width="118.65599999999999"><g><svg xmlns="http://www.w3.org/2000/svg" xmlns:xlink="http://www.w3.org/1999/xlink" version="1.1" x="0" y="0" viewBox="5.6 14.8 88.7 69.22908396835325" enable-background="new 0 0 100 100" xml:space="preserve" height="92.60931440077704" width="118.65599999999999" class="icon-icon-0" data-fill-palette-color="accent" id="SvgjsSvg1634"><g fill="black"><path d="M50.2 84H29.4C28.9 83.9 28 84.4 28 83.3 28 82.4 28.8 82.7 29.3 82.7 29.9 82.6 30.5 82.7 31.1 82.7 35 82.7 36.8 81.4 38 77.7 38.3 76.9 38.5 76 38.5 75.1 38.5 74.3 38.9 73.9 39.7 73.9H61.4C62.1 73.9 62.4 74.2 62.5 74.8 62.8 76.5 63.1 78.1 64 79.7 65 81.6 66.6 82.5 68.7 82.6H71.6C72.1 82.6 72.5 82.6 72.5 83.3 72.5 83.9 72.1 84 71.6 84z" fill="black"></path><path d="M49.9 14.8H91.7C93.7 14.8 94.3 15.4 94.3 17.4V69.9C94.3 72.1 93.7 72.7 91.5 72.7H8.4C6.2 72.7 5.6 72.1 5.6 69.9V17.4C5.6 15.2 6 14.8 8.2 14.8zM49.7 19H10.9C9.7 19 9.3 19.3 9.3 20.6V60.5C9.3 61.8 9.7 62.1 10.9 62.1H88.2C89.4 62.1 89.8 61.8 89.8 60.5V20.6C89.8 19.3 89.4 19 88.2 19z" fill="black"></path><path d="M46.3 53.5C43.9 53.5 43.9 53.5 44.5 51.1 46.6 43.8 48.7 36.6 50.8 29.3 51.1 28.3 51.4 27.9 52.6 27.9 56 28 56 28 55 31.3 53 38 51.1 44.7 49.1 51.4 48.5 53.5 48.5 53.5 46.3 53.5" fill="black"></path><path d="M34.7 41C37 41.9 39.2 42.9 41.5 43.7 42.6 44.1 43.1 44.6 43 45.8 42.9 48.4 43 48.4 40.6 47.4L30.4 43.2C28.5 42.4 28.5 42.4 28.5 40.4 28.5 39.7 28.7 39.3 29.4 39 33.6 37.3 37.8 35.5 42 33.8 42.7 33.5 42.9 33.6 43 34.4 43.2 37.4 43.2 37.4 40.5 38.5 38.6 39.2 36.8 40 34.9 40.8 34.8 40.7 34.8 40.8 34.7 41" fill="black"></path><path d="M65.3 40.9C63.2 40 61.3 39.2 59.5 38.5 59.4 38.5 59.3 38.5 59.2 38.4 57 37.5 56.4 36.4 56.9 34 57.1 33.2 57.4 33.6 57.8 33.8 60.3 34.8 62.8 35.9 65.3 36.9 66.9 37.6 68.5 38.3 70.1 38.9 71.3 39.3 71 40.3 71.1 41.1S71 42.4 70.1 42.8C66.1 44.4 62.2 46.1 58.2 47.7 56.9 48.3 57 48.2 56.8 46.8 56.6 45 57.1 43.9 59 43.4 61.1 42.8 63 41.9 65.3 40.9" fill="black"></path></g></svg></g></svg></g></svg></g></svg></g></svg></g><defs><mask></mask></defs></svg><rect width="320" height="360" fill="black" stroke="none" visibility="hidden"></rect></g></mask></svg><rect width="320" height="360" fill="black" stroke="none" visibility="hidden"></rect></g></mask><linearGradient x1="0.054" x2="0.941" y1="0.5" y2="0.5" id="7eddd47d-d1ab-46b0-961c-e9a9593cce30"><stop stop-color="#864d25" offset="0"></stop><stop stop-color="#f1c4b3" offset="0.498"></stop><stop stop-color="#864d25" offset="1"></stop></linearGradient><rect width="320" height="360" fill="url(#7eddd47d-d1ab-46b0-961c-e9a9593cce30)" mask="url(#b3f4a44b-48ee-4848-8f3d-44c03a273b99)" data-fill-palette-color="accent"></rect><mask id="a5680ef7-3ee8-45ed-886f-335b496bb65c"><g id="SvgjsG1660"><svg viewBox="0 0 320 360" height="360" width="320"><g><svg></svg></g><g><svg viewBox="0 0 320 360" height="360" width="320"><g><path transform="translate(-25.80645,-5.80645) scale(10.32258,10.32258)" d="M18 33.5c8.55 0 15.5-6.95 15.5-15.5 0-8.55-6.95-15.5-15.5-15.5-8.55 0-15.5 6.95-15.5 15.5 0 8.55 6.95 15.5 15.5 15.5zM18.5 32.47v-1c7.04-0.26 12.71-5.93 12.97-12.97h1c-0.26 7.6-6.37 13.71-13.97 13.97zM18.5 3.53c7.6 0.26 13.71 6.37 13.97 13.97h-1c-0.26-7.04-5.93-12.71-12.97-12.97zM30.5 18c0 6.89-5.61 12.5-12.5 12.5-6.89 0-12.5-5.61-12.5-12.5 0-6.89 5.61-12.5 12.5-12.5 6.89 0 12.5 5.61 12.5 12.5zM17.5 3.53v1c-7.04 0.26-12.71 5.93-12.97 12.97h-1c0.26-7.6 6.37-13.71 13.97-13.97zM4.53 18.5c0.26 7.04 5.93 12.71 12.97 12.97v1c-7.6-0.26-13.71-6.37-13.97-13.97z" fill="white" fill-rule="nonzero" stroke="none" stroke-width="1" stroke-linecap="butt" stroke-linejoin="miter" stroke-miterlimit="10" stroke-dasharray="" stroke-dashoffset="0" font-family="none" font-weight="none" font-size="none" text-anchor="none" style="mix-blend-mode: normal"></path></g><g transform="matrix(1,0,0,1,64,145.9800673209511)"><svg viewBox="0 0 192 68.03986535809781" height="68.03986535809781" width="192"><g><svg viewBox="0 0 339.01799712185687 120.13926499032883" height="68.03986535809781" width="192"><g transform="matrix(1,0,0,1,147.01799712185687,0)"><svg viewBox="0 0 192 120.13926499032883" height="120.13926499032883" width="192"><g id="SvgjsG1659"><svg viewBox="0 0 192 120.13926499032883" height="120.13926499032883" width="192" id="SvgjsSvg1658"><g><svg viewBox="0 0 192 120.13926499032883" height="120.13926499032883" width="192"><g transform="matrix(1,0,0,1,0,0)"><svg width="192" viewBox="4.65 -32.15 51.7 32.35" height="120.13926499032883" data-palette-color="url(#76874c72-29a4-49c0-af8a-f7067b2191c3)"></svg></g></svg></g></svg></g></svg></g><g transform="matrix(1,0,0,1,0,13.764975294775894)"><svg viewBox="0 0 118.65599999999999 92.60931440077704" height="92.60931440077704" width="118.65599999999999"><g><svg xmlns="http://www.w3.org/2000/svg" xmlns:xlink="http://www.w3.org/1999/xlink" version="1.1" x="0" y="0" viewBox="5.6 14.8 88.7 69.22908396835325" enable-background="new 0 0 100 100" xml:space="preserve" height="92.60931440077704" width="118.65599999999999" class="icon-icon-0" data-fill-palette-color="accent" id="SvgjsSvg1657"></svg></g></svg></g></svg></g></svg></g></svg></g><defs><mask></mask></defs><mask><g id="SvgjsG1656"><svg viewBox="0 0 320 360" height="360" width="320"><g><svg></svg></g><g><svg viewBox="0 0 320 360" height="360" width="320"><g><path transform="translate(-25.80645,-5.80645) scale(10.32258,10.32258)" d="M18 33.5c8.55 0 15.5-6.95 15.5-15.5 0-8.55-6.95-15.5-15.5-15.5-8.55 0-15.5 6.95-15.5 15.5 0 8.55 6.95 15.5 15.5 15.5zM18.5 32.47v-1c7.04-0.26 12.71-5.93 12.97-12.97h1c-0.26 7.6-6.37 13.71-13.97 13.97zM18.5 3.53c7.6 0.26 13.71 6.37 13.97 13.97h-1c-0.26-7.04-5.93-12.71-12.97-12.97zM30.5 18c0 6.89-5.61 12.5-12.5 12.5-6.89 0-12.5-5.61-12.5-12.5 0-6.89 5.61-12.5 12.5-12.5 6.89 0 12.5 5.61 12.5 12.5zM17.5 3.53v1c-7.04 0.26-12.71 5.93-12.97 12.97h-1c0.26-7.6 6.37-13.71 13.97-13.97zM4.53 18.5c0.26 7.04 5.93 12.71 12.97 12.97v1c-7.6-0.26-13.71-6.37-13.97-13.97z" fill="black" fill-rule="nonzero" stroke="none" stroke-width="1" stroke-linecap="butt" stroke-linejoin="miter" stroke-miterlimit="10" stroke-dasharray="" stroke-dashoffset="0" font-family="none" font-weight="none" font-size="none" text-anchor="none" style="mix-blend-mode: normal"></path></g><g transform="matrix(1,0,0,1,64,145.9800673209511)"><svg viewBox="0 0 192 68.03986535809781" height="68.03986535809781" width="192"><g><svg viewBox="0 0 339.01799712185687 120.13926499032883" height="68.03986535809781" width="192"><g transform="matrix(1,0,0,1,147.01799712185687,0)"><svg viewBox="0 0 192 120.13926499032883" height="120.13926499032883" width="192"><g id="SvgjsG1655"><svg viewBox="0 0 192 120.13926499032883" height="120.13926499032883" width="192" id="SvgjsSvg1654"><g><svg viewBox="0 0 192 120.13926499032883" height="120.13926499032883" width="192"><g transform="matrix(1,0,0,1,0,0)"><svg width="192" viewBox="4.65 -32.15 51.7 32.35" height="120.13926499032883" data-palette-color="url(#76874c72-29a4-49c0-af8a-f7067b2191c3)"><path d="M18.1-16.7Q24.9-15.35 24.9-8.95L24.9-8.95Q24.9-4.4 21.6-2.1 18.3 0.2 11.75 0.2L11.75 0.2Q7.35 0.2 4.7 0L4.7 0 4.65 0 4.9-9.65 4.65-32.05 13.55-32.1Q18.05-32.1 20.48-30.1 22.9-28.1 22.9-24.3L22.9-24.3Q22.9-21.6 21.65-19.65 20.4-17.7 18.1-16.7L18.1-16.7ZM18.8-23.85Q18.8-26.45 17.38-27.63 15.95-28.8 12.75-28.8L12.75-28.8 8.7-28.8 8.6-18.05 14.1-17.9Q18.8-19 18.8-23.85L18.8-23.85ZM12.35-3.15Q16.45-3.15 18.65-4.7 20.85-6.25 20.85-9.15L20.85-9.15Q20.85-14.05 14.7-14.75L14.7-14.75 8.55-14.7 8.5-10 8.65-3.3Q10.6-3.15 12.35-3.15L12.35-3.15ZM56.35-32.15L56.1-9.4 56.2 0 52 0 35.4-25.65 35.15-25.65 35.1-10.55 35.15 0 31.55 0 31.7-9.5 31.6-32.05 35.75-32.05 52.3-6.4 52.65-6.4 52.6-31.85 56.35-32.15Z" opacity="1" transform="matrix(1,0,0,1,0,0)" fill="black" class="wordmark-text-0" id="SvgjsPath1653"></path></svg></g></svg></g></svg></g></svg></g><g transform="matrix(1,0,0,1,0,13.764975294775894)"><svg viewBox="0 0 118.65599999999999 92.60931440077704" height="92.60931440077704" width="118.65599999999999"><g><svg xmlns="http://www.w3.org/2000/svg" xmlns:xlink="http://www.w3.org/1999/xlink" version="1.1" x="0" y="0" viewBox="5.6 14.8 88.7 69.22908396835325" enable-background="new 0 0 100 100" xml:space="preserve" height="92.60931440077704" width="118.65599999999999" class="icon-icon-0" data-fill-palette-color="accent" id="SvgjsSvg1652"><g fill="black"><path d="M50.2 84H29.4C28.9 83.9 28 84.4 28 83.3 28 82.4 28.8 82.7 29.3 82.7 29.9 82.6 30.5 82.7 31.1 82.7 35 82.7 36.8 81.4 38 77.7 38.3 76.9 38.5 76 38.5 75.1 38.5 74.3 38.9 73.9 39.7 73.9H61.4C62.1 73.9 62.4 74.2 62.5 74.8 62.8 76.5 63.1 78.1 64 79.7 65 81.6 66.6 82.5 68.7 82.6H71.6C72.1 82.6 72.5 82.6 72.5 83.3 72.5 83.9 72.1 84 71.6 84z" fill="black"></path><path d="M49.9 14.8H91.7C93.7 14.8 94.3 15.4 94.3 17.4V69.9C94.3 72.1 93.7 72.7 91.5 72.7H8.4C6.2 72.7 5.6 72.1 5.6 69.9V17.4C5.6 15.2 6 14.8 8.2 14.8zM49.7 19H10.9C9.7 19 9.3 19.3 9.3 20.6V60.5C9.3 61.8 9.7 62.1 10.9 62.1H88.2C89.4 62.1 89.8 61.8 89.8 60.5V20.6C89.8 19.3 89.4 19 88.2 19z" fill="black"></path><path d="M46.3 53.5C43.9 53.5 43.9 53.5 44.5 51.1 46.6 43.8 48.7 36.6 50.8 29.3 51.1 28.3 51.4 27.9 52.6 27.9 56 28 56 28 55 31.3 53 38 51.1 44.7 49.1 51.4 48.5 53.5 48.5 53.5 46.3 53.5" fill="black"></path><path d="M34.7 41C37 41.9 39.2 42.9 41.5 43.7 42.6 44.1 43.1 44.6 43 45.8 42.9 48.4 43 48.4 40.6 47.4L30.4 43.2C28.5 42.4 28.5 42.4 28.5 40.4 28.5 39.7 28.7 39.3 29.4 39 33.6 37.3 37.8 35.5 42 33.8 42.7 33.5 42.9 33.6 43 34.4 43.2 37.4 43.2 37.4 40.5 38.5 38.6 39.2 36.8 40 34.9 40.8 34.8 40.7 34.8 40.8 34.7 41" fill="black"></path><path d="M65.3 40.9C63.2 40 61.3 39.2 59.5 38.5 59.4 38.5 59.3 38.5 59.2 38.4 57 37.5 56.4 36.4 56.9 34 57.1 33.2 57.4 33.6 57.8 33.8 60.3 34.8 62.8 35.9 65.3 36.9 66.9 37.6 68.5 38.3 70.1 38.9 71.3 39.3 71 40.3 71.1 41.1S71 42.4 70.1 42.8C66.1 44.4 62.2 46.1 58.2 47.7 56.9 48.3 57 48.2 56.8 46.8 56.6 45 57.1 43.9 59 43.4 61.1 42.8 63 41.9 65.3 40.9" fill="black"></path></g></svg></g></svg></g></svg></g></svg></g></svg></g><defs><mask></mask></defs></svg><rect width="320" height="360" fill="black" stroke="none" visibility="hidden"></rect></g></mask><mask><g id="SvgjsG1651"><svg viewBox="0 0 320 360" height="360" width="320"><g><svg></svg></g><g><svg viewBox="0 0 320 360" height="360" width="320"><g><path transform="translate(-25.80645,-5.80645) scale(10.32258,10.32258)" d="M18 33.5c8.55 0 15.5-6.95 15.5-15.5 0-8.55-6.95-15.5-15.5-15.5-8.55 0-15.5 6.95-15.5 15.5 0 8.55 6.95 15.5 15.5 15.5zM18.5 32.47v-1c7.04-0.26 12.71-5.93 12.97-12.97h1c-0.26 7.6-6.37 13.71-13.97 13.97zM18.5 3.53c7.6 0.26 13.71 6.37 13.97 13.97h-1c-0.26-7.04-5.93-12.71-12.97-12.97zM30.5 18c0 6.89-5.61 12.5-12.5 12.5-6.89 0-12.5-5.61-12.5-12.5 0-6.89 5.61-12.5 12.5-12.5 6.89 0 12.5 5.61 12.5 12.5zM17.5 3.53v1c-7.04 0.26-12.71 5.93-12.97 12.97h-1c0.26-7.6 6.37-13.71 13.97-13.97zM4.53 18.5c0.26 7.04 5.93 12.71 12.97 12.97v1c-7.6-0.26-13.71-6.37-13.97-13.97z" fill="black" fill-rule="nonzero" stroke="none" stroke-width="1" stroke-linecap="butt" stroke-linejoin="miter" stroke-miterlimit="10" stroke-dasharray="" stroke-dashoffset="0" font-family="none" font-weight="none" font-size="none" text-anchor="none" style="mix-blend-mode: normal"></path></g><g transform="matrix(1,0,0,1,64,145.9800673209511)"><svg viewBox="0 0 192 68.03986535809781" height="68.03986535809781" width="192"><g><svg viewBox="0 0 339.01799712185687 120.13926499032883" height="68.03986535809781" width="192"><g transform="matrix(1,0,0,1,147.01799712185687,0)"><svg viewBox="0 0 192 120.13926499032883" height="120.13926499032883" width="192"><g id="SvgjsG1650"><svg viewBox="0 0 192 120.13926499032883" height="120.13926499032883" width="192" id="SvgjsSvg1649"><g><svg viewBox="0 0 192 120.13926499032883" height="120.13926499032883" width="192"><g transform="matrix(1,0,0,1,0,0)"><svg width="192" viewBox="4.65 -32.15 51.7 32.35" height="120.13926499032883" data-palette-color="url(#76874c72-29a4-49c0-af8a-f7067b2191c3)"></svg></g></svg></g></svg></g></svg></g><g transform="matrix(1,0,0,1,0,13.764975294775894)"><svg viewBox="0 0 118.65599999999999 92.60931440077704" height="92.60931440077704" width="118.65599999999999"><g><svg xmlns="http://www.w3.org/2000/svg" xmlns:xlink="http://www.w3.org/1999/xlink" version="1.1" x="0" y="0" viewBox="5.6 14.8 88.7 69.22908396835325" enable-background="new 0 0 100 100" xml:space="preserve" height="92.60931440077704" width="118.65599999999999" class="icon-icon-0" data-fill-palette-color="accent" id="SvgjsSvg1648"><g fill="black"><path d="M50.2 84H29.4C28.9 83.9 28 84.4 28 83.3 28 82.4 28.8 82.7 29.3 82.7 29.9 82.6 30.5 82.7 31.1 82.7 35 82.7 36.8 81.4 38 77.7 38.3 76.9 38.5 76 38.5 75.1 38.5 74.3 38.9 73.9 39.7 73.9H61.4C62.1 73.9 62.4 74.2 62.5 74.8 62.8 76.5 63.1 78.1 64 79.7 65 81.6 66.6 82.5 68.7 82.6H71.6C72.1 82.6 72.5 82.6 72.5 83.3 72.5 83.9 72.1 84 71.6 84z" fill="black"></path><path d="M49.9 14.8H91.7C93.7 14.8 94.3 15.4 94.3 17.4V69.9C94.3 72.1 93.7 72.7 91.5 72.7H8.4C6.2 72.7 5.6 72.1 5.6 69.9V17.4C5.6 15.2 6 14.8 8.2 14.8zM49.7 19H10.9C9.7 19 9.3 19.3 9.3 20.6V60.5C9.3 61.8 9.7 62.1 10.9 62.1H88.2C89.4 62.1 89.8 61.8 89.8 60.5V20.6C89.8 19.3 89.4 19 88.2 19z" fill="black"></path><path d="M46.3 53.5C43.9 53.5 43.9 53.5 44.5 51.1 46.6 43.8 48.7 36.6 50.8 29.3 51.1 28.3 51.4 27.9 52.6 27.9 56 28 56 28 55 31.3 53 38 51.1 44.7 49.1 51.4 48.5 53.5 48.5 53.5 46.3 53.5" fill="black"></path><path d="M34.7 41C37 41.9 39.2 42.9 41.5 43.7 42.6 44.1 43.1 44.6 43 45.8 42.9 48.4 43 48.4 40.6 47.4L30.4 43.2C28.5 42.4 28.5 42.4 28.5 40.4 28.5 39.7 28.7 39.3 29.4 39 33.6 37.3 37.8 35.5 42 33.8 42.7 33.5 42.9 33.6 43 34.4 43.2 37.4 43.2 37.4 40.5 38.5 38.6 39.2 36.8 40 34.9 40.8 34.8 40.7 34.8 40.8 34.7 41" fill="black"></path><path d="M65.3 40.9C63.2 40 61.3 39.2 59.5 38.5 59.4 38.5 59.3 38.5 59.2 38.4 57 37.5 56.4 36.4 56.9 34 57.1 33.2 57.4 33.6 57.8 33.8 60.3 34.8 62.8 35.9 65.3 36.9 66.9 37.6 68.5 38.3 70.1 38.9 71.3 39.3 71 40.3 71.1 41.1S71 42.4 70.1 42.8C66.1 44.4 62.2 46.1 58.2 47.7 56.9 48.3 57 48.2 56.8 46.8 56.6 45 57.1 43.9 59 43.4 61.1 42.8 63 41.9 65.3 40.9" fill="black"></path></g></svg></g></svg></g></svg></g></svg></g></svg></g><defs><mask></mask></defs><mask><g id="SvgjsG1647"><svg viewBox="0 0 320 360" height="360" width="320"><g><svg></svg></g><g><svg viewBox="0 0 320 360" height="360" width="320"><g><path transform="translate(-25.80645,-5.80645) scale(10.32258,10.32258)" d="M18 33.5c8.55 0 15.5-6.95 15.5-15.5 0-8.55-6.95-15.5-15.5-15.5-8.55 0-15.5 6.95-15.5 15.5 0 8.55 6.95 15.5 15.5 15.5zM18.5 32.47v-1c7.04-0.26 12.71-5.93 12.97-12.97h1c-0.26 7.6-6.37 13.71-13.97 13.97zM18.5 3.53c7.6 0.26 13.71 6.37 13.97 13.97h-1c-0.26-7.04-5.93-12.71-12.97-12.97zM30.5 18c0 6.89-5.61 12.5-12.5 12.5-6.89 0-12.5-5.61-12.5-12.5 0-6.89 5.61-12.5 12.5-12.5 6.89 0 12.5 5.61 12.5 12.5zM17.5 3.53v1c-7.04 0.26-12.71 5.93-12.97 12.97h-1c0.26-7.6 6.37-13.71 13.97-13.97zM4.53 18.5c0.26 7.04 5.93 12.71 12.97 12.97v1c-7.6-0.26-13.71-6.37-13.97-13.97z" fill="black" fill-rule="nonzero" stroke="none" stroke-width="1" stroke-linecap="butt" stroke-linejoin="miter" stroke-miterlimit="10" stroke-dasharray="" stroke-dashoffset="0" font-family="none" font-weight="none" font-size="none" text-anchor="none" style="mix-blend-mode: normal"></path></g><g transform="matrix(1,0,0,1,64,145.9800673209511)"><svg viewBox="0 0 192 68.03986535809781" height="68.03986535809781" width="192"><g><svg viewBox="0 0 339.01799712185687 120.13926499032883" height="68.03986535809781" width="192"><g transform="matrix(1,0,0,1,147.01799712185687,0)"><svg viewBox="0 0 192 120.13926499032883" height="120.13926499032883" width="192"><g id="SvgjsG1646"><svg viewBox="0 0 192 120.13926499032883" height="120.13926499032883" width="192" id="SvgjsSvg1645"><g><svg viewBox="0 0 192 120.13926499032883" height="120.13926499032883" width="192"><g transform="matrix(1,0,0,1,0,0)"><svg width="192" viewBox="4.65 -32.15 51.7 32.35" height="120.13926499032883" data-palette-color="url(#76874c72-29a4-49c0-af8a-f7067b2191c3)"><path d="M18.1-16.7Q24.9-15.35 24.9-8.95L24.9-8.95Q24.9-4.4 21.6-2.1 18.3 0.2 11.75 0.2L11.75 0.2Q7.35 0.2 4.7 0L4.7 0 4.65 0 4.9-9.65 4.65-32.05 13.55-32.1Q18.05-32.1 20.48-30.1 22.9-28.1 22.9-24.3L22.9-24.3Q22.9-21.6 21.65-19.65 20.4-17.7 18.1-16.7L18.1-16.7ZM18.8-23.85Q18.8-26.45 17.38-27.63 15.95-28.8 12.75-28.8L12.75-28.8 8.7-28.8 8.6-18.05 14.1-17.9Q18.8-19 18.8-23.85L18.8-23.85ZM12.35-3.15Q16.45-3.15 18.65-4.7 20.85-6.25 20.85-9.15L20.85-9.15Q20.85-14.05 14.7-14.75L14.7-14.75 8.55-14.7 8.5-10 8.65-3.3Q10.6-3.15 12.35-3.15L12.35-3.15ZM56.35-32.15L56.1-9.4 56.2 0 52 0 35.4-25.65 35.15-25.65 35.1-10.55 35.15 0 31.55 0 31.7-9.5 31.6-32.05 35.75-32.05 52.3-6.4 52.65-6.4 52.6-31.85 56.35-32.15Z" opacity="1" transform="matrix(1,0,0,1,0,0)" fill="black" class="wordmark-text-0" id="SvgjsPath1644"></path></svg></g></svg></g></svg></g></svg></g><g transform="matrix(1,0,0,1,0,13.764975294775894)"><svg viewBox="0 0 118.65599999999999 92.60931440077704" height="92.60931440077704" width="118.65599999999999"><g><svg xmlns="http://www.w3.org/2000/svg" xmlns:xlink="http://www.w3.org/1999/xlink" version="1.1" x="0" y="0" viewBox="5.6 14.8 88.7 69.22908396835325" enable-background="new 0 0 100 100" xml:space="preserve" height="92.60931440077704" width="118.65599999999999" class="icon-icon-0" data-fill-palette-color="accent" id="SvgjsSvg1643"><g fill="black"><path d="M50.2 84H29.4C28.9 83.9 28 84.4 28 83.3 28 82.4 28.8 82.7 29.3 82.7 29.9 82.6 30.5 82.7 31.1 82.7 35 82.7 36.8 81.4 38 77.7 38.3 76.9 38.5 76 38.5 75.1 38.5 74.3 38.9 73.9 39.7 73.9H61.4C62.1 73.9 62.4 74.2 62.5 74.8 62.8 76.5 63.1 78.1 64 79.7 65 81.6 66.6 82.5 68.7 82.6H71.6C72.1 82.6 72.5 82.6 72.5 83.3 72.5 83.9 72.1 84 71.6 84z" fill="black"></path><path d="M49.9 14.8H91.7C93.7 14.8 94.3 15.4 94.3 17.4V69.9C94.3 72.1 93.7 72.7 91.5 72.7H8.4C6.2 72.7 5.6 72.1 5.6 69.9V17.4C5.6 15.2 6 14.8 8.2 14.8zM49.7 19H10.9C9.7 19 9.3 19.3 9.3 20.6V60.5C9.3 61.8 9.7 62.1 10.9 62.1H88.2C89.4 62.1 89.8 61.8 89.8 60.5V20.6C89.8 19.3 89.4 19 88.2 19z" fill="black"></path><path d="M46.3 53.5C43.9 53.5 43.9 53.5 44.5 51.1 46.6 43.8 48.7 36.6 50.8 29.3 51.1 28.3 51.4 27.9 52.6 27.9 56 28 56 28 55 31.3 53 38 51.1 44.7 49.1 51.4 48.5 53.5 48.5 53.5 46.3 53.5" fill="black"></path><path d="M34.7 41C37 41.9 39.2 42.9 41.5 43.7 42.6 44.1 43.1 44.6 43 45.8 42.9 48.4 43 48.4 40.6 47.4L30.4 43.2C28.5 42.4 28.5 42.4 28.5 40.4 28.5 39.7 28.7 39.3 29.4 39 33.6 37.3 37.8 35.5 42 33.8 42.7 33.5 42.9 33.6 43 34.4 43.2 37.4 43.2 37.4 40.5 38.5 38.6 39.2 36.8 40 34.9 40.8 34.8 40.7 34.8 40.8 34.7 41" fill="black"></path><path d="M65.3 40.9C63.2 40 61.3 39.2 59.5 38.5 59.4 38.5 59.3 38.5 59.2 38.4 57 37.5 56.4 36.4 56.9 34 57.1 33.2 57.4 33.6 57.8 33.8 60.3 34.8 62.8 35.9 65.3 36.9 66.9 37.6 68.5 38.3 70.1 38.9 71.3 39.3 71 40.3 71.1 41.1S71 42.4 70.1 42.8C66.1 44.4 62.2 46.1 58.2 47.7 56.9 48.3 57 48.2 56.8 46.8 56.6 45 57.1 43.9 59 43.4 61.1 42.8 63 41.9 65.3 40.9" fill="black"></path></g></svg></g></svg></g></svg></g></svg></g></svg></g><defs><mask></mask></defs></svg><rect width="320" height="360" fill="black" stroke="none" visibility="hidden"></rect></g></mask></svg><rect width="320" height="360" fill="black" stroke="none" visibility="hidden"></rect></g></mask></svg><rect width="320" height="360" fill="black" stroke="none" visibility="hidden"></rect></g></mask><linearGradient x1="0.054" x2="0.941" y1="0.5" y2="0.5" id="25d19ee4-2fc3-4284-82a4-f9ba7ec59d5a"><stop stop-color="#864d25" offset="0"></stop><stop stop-color="#f1c4b3" offset="0.498"></stop><stop stop-color="#864d25" offset="1"></stop></linearGradient></svg><rect width="320" height="360" fill="none" stroke="none" visibility="hidden"></rect></g></svg></g></svg>