<svg xmlns="http://www.w3.org/2000/svg" version="1.1" xmlns:xlink="http://www.w3.org/1999/xlink" xmlns:svgjs="http://svgjs.dev/svgjs" width="1500" height="1500" viewBox="0 0 1500 1500"><rect width="1500" height="1500" fill="#000000"></rect><g transform="matrix(0.6666666666666666,0,0,0.6666666666666666,249.39393939393938,661.4406309350271)"><svg viewBox="0 0 396 70" data-background-color="#000000" preserveAspectRatio="xMidYMid meet" height="265" width="1500" xmlns="http://www.w3.org/2000/svg" xmlns:xlink="http://www.w3.org/1999/xlink"><g id="tight-bounds" transform="matrix(1,0,0,1,0.2400000000000091,0.0895613276307472)"><svg viewBox="0 0 395.52 69.8208773447385" height="69.8208773447385" width="395.52"><g><svg viewBox="0 0 521.8611024812154 92.12378647686832" height="69.8208773447385" width="395.52"><g transform="matrix(1,0,0,1,126.34110248121546,28.467587188612097)"><svg viewBox="0 0 395.52 35.188612099644125" height="35.188612099644125" width="395.52"><g id="textblocktransform"><svg viewBox="0 0 395.52 35.188612099644125" height="35.188612099644125" width="395.52" id="textblock"><g><svg viewBox="0 0 395.52 35.188612099644125" height="35.188612099644125" width="395.52"><g transform="matrix(1,0,0,1,0,0)"><svg width="395.52" viewBox="4.65 -32.15 365.27000000000004 32.5" height="35.188612099644125" data-palette-color="url(#aeb1fad1-33ef-4cf7-94f6-97cb8ec631c9)"></svg></g></svg></g></svg></g></svg></g><g><svg viewBox="0 0 118.03391569117987 92.12378647686832" height="92.12378647686832" width="118.03391569117987"><g><svg xmlns="http://www.w3.org/2000/svg" xmlns:xlink="http://www.w3.org/1999/xlink" version="1.1" x="0" y="0" viewBox="5.6 14.8 88.7 69.22908396835325" enable-background="new 0 0 100 100" xml:space="preserve" height="92.12378647686832" width="118.03391569117987" class="icon-icon-0" data-fill-palette-color="accent" id="icon-0"></svg></g></svg></g></svg></g><defs></defs><mask id="daf4b49f-b957-41e4-ab2c-b055c1c826f5"><g id="SvgjsG1013"><svg viewBox="0 0 395.52 69.8208773447385" height="69.8208773447385" width="395.52"><g><svg viewBox="0 0 521.8611024812154 92.12378647686832" height="69.8208773447385" width="395.52"><g transform="matrix(1,0,0,1,126.34110248121546,28.467587188612097)"><svg viewBox="0 0 395.52 35.188612099644125" height="35.188612099644125" width="395.52"><g id="SvgjsG1012"><svg viewBox="0 0 395.52 35.188612099644125" height="35.188612099644125" width="395.52" id="SvgjsSvg1011"><g><svg viewBox="0 0 395.52 35.188612099644125" height="35.188612099644125" width="395.52"><g transform="matrix(1,0,0,1,0,0)"><svg width="395.52" viewBox="4.65 -32.15 365.27000000000004 32.5" height="35.188612099644125" data-palette-color="url(#aeb1fad1-33ef-4cf7-94f6-97cb8ec631c9)"><path d="M18.1-16.7Q24.9-15.35 24.9-8.95L24.9-8.95Q24.9-4.4 21.6-2.1 18.3 0.2 11.75 0.2L11.75 0.2Q7.35 0.2 4.7 0L4.7 0 4.65 0 4.9-9.65 4.65-32.05 13.55-32.1Q18.05-32.1 20.48-30.1 22.9-28.1 22.9-24.3L22.9-24.3Q22.9-21.6 21.65-19.65 20.4-17.7 18.1-16.7L18.1-16.7ZM18.8-23.85Q18.8-26.45 17.38-27.63 15.95-28.8 12.75-28.8L12.75-28.8 8.7-28.8 8.6-18.05 14.1-17.9Q18.8-19 18.8-23.85L18.8-23.85ZM12.35-3.15Q16.45-3.15 18.65-4.7 20.85-6.25 20.85-9.15L20.85-9.15Q20.85-14.05 14.7-14.75L14.7-14.75 8.55-14.7 8.5-10 8.65-3.3Q10.6-3.15 12.35-3.15L12.35-3.15ZM42-24.9L50.75 0 47 0 46.4-2.7 45.1-6.4 39.15-6.45 33.85-6.4 32.5-2.9 31.8 0 28.1 0 37.7-24.9 42-24.9ZM39.45-9.4L44.05-9.45 39.9-21.25 39.6-21.25 35.05-9.45 39.45-9.4ZM68.4-10.05Q71.45-5.4 75.15-0.9L75.15-0.9 75.1-0.4Q73 0.25 71.65 0.35L71.65 0.35 71-0.05Q67.2-5.8 65.25-9.1L65.25-9.1 60.55-9.05 60.55-7.8 60.65 0 56.95 0 57.1-7.5 56.95-24.9 65.45-24.95Q69.4-24.95 71.52-23.1 73.65-21.25 73.65-17.75L73.65-17.75Q73.65-15.2 72.27-13.2 70.9-11.2 68.4-10.05L68.4-10.05ZM60.65-21.9L60.6-12.15 65.3-12Q69.75-13.25 69.75-17.45L69.75-17.45Q69.75-19.65 68.45-20.75 67.15-21.85 64.5-21.95L64.5-21.95 60.65-21.9ZM92.39-24.9L101.14 0 97.39 0 96.79-2.7 95.49-6.4 89.54-6.45 84.24-6.4 82.89-2.9 82.19 0 78.49 0 88.09-24.9 92.39-24.9ZM89.84-9.4L94.44-9.45 90.29-21.25 89.99-21.25 85.44-9.45 89.84-9.4ZM128.14-25L127.99-7.45 128.04 0 124.04 0 110.94-19 110.69-19 110.64-8.3 110.74 0 107.34 0 107.49-7.35 107.39-24.9 111.34-24.9 124.44-5.9 124.79-5.9 124.69-24.75 128.14-25ZM170.39-32.15L170.14-9.4 170.24 0 166.04 0 149.44-25.65 149.19-25.65 149.14-10.55 149.19 0 145.59 0 145.74-9.5 145.64-32.05 149.79-32.05 166.34-6.4 166.69-6.4 166.64-31.85 170.39-32.15ZM190.18-24.9L198.93 0 195.18 0 194.58-2.7 193.28-6.4 187.33-6.45 182.03-6.4 180.68-2.9 179.98 0 176.28 0 185.88-24.9 190.18-24.9ZM187.63-9.4L192.23-9.45 188.08-21.25 187.78-21.25 183.23-9.45 187.63-9.4ZM216.58-10.05Q219.63-5.4 223.33-0.9L223.33-0.9 223.28-0.4Q221.18 0.25 219.83 0.35L219.83 0.35 219.18-0.05Q215.38-5.8 213.43-9.1L213.43-9.1 208.73-9.05 208.73-7.8 208.83 0 205.13 0 205.28-7.5 205.13-24.9 213.63-24.95Q217.58-24.95 219.71-23.1 221.83-21.25 221.83-17.75L221.83-17.75Q221.83-15.2 220.46-13.2 219.08-11.2 216.58-10.05L216.58-10.05ZM208.83-21.9L208.78-12.15 213.48-12Q217.93-13.25 217.93-17.45L217.93-17.45Q217.93-19.65 216.63-20.75 215.33-21.85 212.68-21.95L212.68-21.95 208.83-21.9ZM241.38-10.05Q244.43-5.4 248.13-0.9L248.13-0.9 248.08-0.4Q245.98 0.25 244.63 0.35L244.63 0.35 243.98-0.05Q240.18-5.8 238.23-9.1L238.23-9.1 233.53-9.05 233.53-7.8 233.63 0 229.93 0 230.08-7.5 229.93-24.9 238.43-24.95Q242.38-24.95 244.5-23.1 246.63-21.25 246.63-17.75L246.63-17.75Q246.63-15.2 245.25-13.2 243.88-11.2 241.38-10.05L241.38-10.05ZM233.63-21.9L233.58-12.15 238.28-12Q242.73-13.25 242.73-17.45L242.73-17.45Q242.73-19.65 241.43-20.75 240.13-21.85 237.48-21.95L237.48-21.95 233.63-21.9ZM265.38-24.9L274.13 0 270.38 0 269.78-2.7 268.48-6.4 262.53-6.45 257.23-6.4 255.88-2.9 255.18 0 251.48 0 261.08-24.9 265.38-24.9ZM262.83-9.4L267.43-9.45 263.28-21.25 262.98-21.25 258.43-9.45 262.83-9.4ZM298.72-24.9L289.22 0 284.77 0 276.07-24.9 279.92-24.9 280.52-22.15 286.97-3.7 287.22-3.7 294.37-22 294.97-24.9 298.72-24.9ZM323.52-24.9L323.37-12.25 323.37-8.65Q323.42-4.4 320.8-2.05 318.17 0.3 313.27 0.3L313.27 0.3Q308.42 0.3 305.87-2.02 303.32-4.35 303.42-8.65L303.42-8.65 303.47-12.45 303.42-24.9 307.17-24.9 306.97-9.25Q306.92-6.1 308.55-4.5 310.17-2.9 313.42-2.9L313.42-2.9Q316.62-2.9 318.27-4.5 319.92-6.1 319.87-9.25L319.87-9.25 319.72-24.9 323.52-24.9ZM344.87-3.15L345.07-2.8 344.82 0 331.57 0 331.72-7.5 331.57-24.9 335.32-24.9 335.17-7.8 335.27-3.15 344.87-3.15ZM361.17-24.9L369.92 0 366.17 0 365.57-2.7 364.27-6.4 358.32-6.45 353.02-6.4 351.67-2.9 350.97 0 347.27 0 356.87-24.9 361.17-24.9ZM358.62-9.4L363.22-9.45 359.07-21.25 358.77-21.25 354.22-9.45 358.62-9.4Z" opacity="1" transform="matrix(1,0,0,1,0,0)" fill="white" class="wordmark-text-0" id="SvgjsPath1010"></path></svg></g></svg></g></svg></g></svg></g><g><svg viewBox="0 0 118.03391569117987 92.12378647686832" height="92.12378647686832" width="118.03391569117987"><g><svg xmlns="http://www.w3.org/2000/svg" xmlns:xlink="http://www.w3.org/1999/xlink" version="1.1" x="0" y="0" viewBox="5.6 14.8 88.7 69.22908396835325" enable-background="new 0 0 100 100" xml:space="preserve" height="92.12378647686832" width="118.03391569117987" class="icon-icon-0" data-fill-palette-color="accent" id="SvgjsSvg1009"><g fill="black"><path d="M50.2 84H29.4C28.9 83.9 28 84.4 28 83.3 28 82.4 28.8 82.7 29.3 82.7 29.9 82.6 30.5 82.7 31.1 82.7 35 82.7 36.8 81.4 38 77.7 38.3 76.9 38.5 76 38.5 75.1 38.5 74.3 38.9 73.9 39.7 73.9H61.4C62.1 73.9 62.4 74.2 62.5 74.8 62.8 76.5 63.1 78.1 64 79.7 65 81.6 66.6 82.5 68.7 82.6H71.6C72.1 82.6 72.5 82.6 72.5 83.3 72.5 83.9 72.1 84 71.6 84z" fill="black"></path><path d="M49.9 14.8H91.7C93.7 14.8 94.3 15.4 94.3 17.4V69.9C94.3 72.1 93.7 72.7 91.5 72.7H8.4C6.2 72.7 5.6 72.1 5.6 69.9V17.4C5.6 15.2 6 14.8 8.2 14.8zM49.7 19H10.9C9.7 19 9.3 19.3 9.3 20.6V60.5C9.3 61.8 9.7 62.1 10.9 62.1H88.2C89.4 62.1 89.8 61.8 89.8 60.5V20.6C89.8 19.3 89.4 19 88.2 19z" fill="black"></path><path d="M46.3 53.5C43.9 53.5 43.9 53.5 44.5 51.1 46.6 43.8 48.7 36.6 50.8 29.3 51.1 28.3 51.4 27.9 52.6 27.9 56 28 56 28 55 31.3 53 38 51.1 44.7 49.1 51.4 48.5 53.5 48.5 53.5 46.3 53.5" fill="black"></path><path d="M34.7 41C37 41.9 39.2 42.9 41.5 43.7 42.6 44.1 43.1 44.6 43 45.8 42.9 48.4 43 48.4 40.6 47.4L30.4 43.2C28.5 42.4 28.5 42.4 28.5 40.4 28.5 39.7 28.7 39.3 29.4 39 33.6 37.3 37.8 35.5 42 33.8 42.7 33.5 42.9 33.6 43 34.4 43.2 37.4 43.2 37.4 40.5 38.5 38.6 39.2 36.8 40 34.9 40.8 34.8 40.7 34.8 40.8 34.7 41" fill="black"></path><path d="M65.3 40.9C63.2 40 61.3 39.2 59.5 38.5 59.4 38.5 59.3 38.5 59.2 38.4 57 37.5 56.4 36.4 56.9 34 57.1 33.2 57.4 33.6 57.8 33.8 60.3 34.8 62.8 35.9 65.3 36.9 66.9 37.6 68.5 38.3 70.1 38.9 71.3 39.3 71 40.3 71.1 41.1S71 42.4 70.1 42.8C66.1 44.4 62.2 46.1 58.2 47.7 56.9 48.3 57 48.2 56.8 46.8 56.6 45 57.1 43.9 59 43.4 61.1 42.8 63 41.9 65.3 40.9" fill="black"></path></g></svg></g></svg></g></svg></g><defs><mask></mask></defs></svg><rect width="395.52" height="69.8208773447385" fill="black" stroke="none" visibility="hidden"></rect></g></mask><linearGradient x1="0.054" x2="0.941" y1="0.5" y2="0.5" id="aeb1fad1-33ef-4cf7-94f6-97cb8ec631c9"><stop stop-color="#864d25" offset="0"></stop><stop stop-color="#f1c4b3" offset="0.498"></stop><stop stop-color="#864d25" offset="1"></stop></linearGradient><rect width="395.52" height="69.8208773447385" fill="url(#aeb1fad1-33ef-4cf7-94f6-97cb8ec631c9)" mask="url(#daf4b49f-b957-41e4-ab2c-b055c1c826f5)" data-fill-palette-color="primary"></rect><mask id="2ece1136-8217-4cd0-8214-540c25515cb2"><g id="SvgjsG1032"><svg viewBox="0 0 395.52 69.8208773447385" height="69.8208773447385" width="395.52"><g><svg viewBox="0 0 521.8611024812154 92.12378647686832" height="69.8208773447385" width="395.52"><g transform="matrix(1,0,0,1,126.34110248121546,28.467587188612097)"><svg viewBox="0 0 395.52 35.188612099644125" height="35.188612099644125" width="395.52"><g id="SvgjsG1031"><svg viewBox="0 0 395.52 35.188612099644125" height="35.188612099644125" width="395.52" id="SvgjsSvg1030"><g><svg viewBox="0 0 395.52 35.188612099644125" height="35.188612099644125" width="395.52"><g transform="matrix(1,0,0,1,0,0)"><svg width="395.52" viewBox="4.65 -32.15 365.27000000000004 32.5" height="35.188612099644125" data-palette-color="url(#aeb1fad1-33ef-4cf7-94f6-97cb8ec631c9)"></svg></g></svg></g></svg></g></svg></g><g><svg viewBox="0 0 118.03391569117987 92.12378647686832" height="92.12378647686832" width="118.03391569117987"><g><svg xmlns="http://www.w3.org/2000/svg" xmlns:xlink="http://www.w3.org/1999/xlink" version="1.1" x="0" y="0" viewBox="5.6 14.8 88.7 69.22908396835325" enable-background="new 0 0 100 100" xml:space="preserve" height="92.12378647686832" width="118.03391569117987" class="icon-icon-0" data-fill-palette-color="accent" id="SvgjsSvg1029"><g fill="white"><path d="M50.2 84H29.4C28.9 83.9 28 84.4 28 83.3 28 82.4 28.8 82.7 29.3 82.7 29.9 82.6 30.5 82.7 31.1 82.7 35 82.7 36.8 81.4 38 77.7 38.3 76.9 38.5 76 38.5 75.1 38.5 74.3 38.9 73.9 39.7 73.9H61.4C62.1 73.9 62.4 74.2 62.5 74.8 62.8 76.5 63.1 78.1 64 79.7 65 81.6 66.6 82.5 68.7 82.6H71.6C72.1 82.6 72.5 82.6 72.5 83.3 72.5 83.9 72.1 84 71.6 84z" fill="white"></path><path d="M49.9 14.8H91.7C93.7 14.8 94.3 15.4 94.3 17.4V69.9C94.3 72.1 93.7 72.7 91.5 72.7H8.4C6.2 72.7 5.6 72.1 5.6 69.9V17.4C5.6 15.2 6 14.8 8.2 14.8zM49.7 19H10.9C9.7 19 9.3 19.3 9.3 20.6V60.5C9.3 61.8 9.7 62.1 10.9 62.1H88.2C89.4 62.1 89.8 61.8 89.8 60.5V20.6C89.8 19.3 89.4 19 88.2 19z" fill="white"></path><path d="M46.3 53.5C43.9 53.5 43.9 53.5 44.5 51.1 46.6 43.8 48.7 36.6 50.8 29.3 51.1 28.3 51.4 27.9 52.6 27.9 56 28 56 28 55 31.3 53 38 51.1 44.7 49.1 51.4 48.5 53.5 48.5 53.5 46.3 53.5" fill="white"></path><path d="M34.7 41C37 41.9 39.2 42.9 41.5 43.7 42.6 44.1 43.1 44.6 43 45.8 42.9 48.4 43 48.4 40.6 47.4L30.4 43.2C28.5 42.4 28.5 42.4 28.5 40.4 28.5 39.7 28.7 39.3 29.4 39 33.6 37.3 37.8 35.5 42 33.8 42.7 33.5 42.9 33.6 43 34.4 43.2 37.4 43.2 37.4 40.5 38.5 38.6 39.2 36.8 40 34.9 40.8 34.8 40.7 34.8 40.8 34.7 41" fill="white"></path><path d="M65.3 40.9C63.2 40 61.3 39.2 59.5 38.5 59.4 38.5 59.3 38.5 59.2 38.4 57 37.5 56.4 36.4 56.9 34 57.1 33.2 57.4 33.6 57.8 33.8 60.3 34.8 62.8 35.9 65.3 36.9 66.9 37.6 68.5 38.3 70.1 38.9 71.3 39.3 71 40.3 71.1 41.1S71 42.4 70.1 42.8C66.1 44.4 62.2 46.1 58.2 47.7 56.9 48.3 57 48.2 56.8 46.8 56.6 45 57.1 43.9 59 43.4 61.1 42.8 63 41.9 65.3 40.9" fill="white"></path></g></svg></g></svg></g></svg></g><defs><mask></mask></defs><mask><g id="SvgjsG1028"><svg viewBox="0 0 395.52 69.8208773447385" height="69.8208773447385" width="395.52"><g><svg viewBox="0 0 521.8611024812154 92.12378647686832" height="69.8208773447385" width="395.52"><g transform="matrix(1,0,0,1,126.34110248121546,28.467587188612097)"><svg viewBox="0 0 395.52 35.188612099644125" height="35.188612099644125" width="395.52"><g id="SvgjsG1027"><svg viewBox="0 0 395.52 35.188612099644125" height="35.188612099644125" width="395.52" id="SvgjsSvg1026"><g><svg viewBox="0 0 395.52 35.188612099644125" height="35.188612099644125" width="395.52"><g transform="matrix(1,0,0,1,0,0)"><svg width="395.52" viewBox="4.65 -32.15 365.27000000000004 32.5" height="35.188612099644125" data-palette-color="url(#aeb1fad1-33ef-4cf7-94f6-97cb8ec631c9)"><path d="M18.1-16.7Q24.9-15.35 24.9-8.95L24.9-8.95Q24.9-4.4 21.6-2.1 18.3 0.2 11.75 0.2L11.75 0.2Q7.35 0.2 4.7 0L4.7 0 4.65 0 4.9-9.65 4.65-32.05 13.55-32.1Q18.05-32.1 20.48-30.1 22.9-28.1 22.9-24.3L22.9-24.3Q22.9-21.6 21.65-19.65 20.4-17.7 18.1-16.7L18.1-16.7ZM18.8-23.85Q18.8-26.45 17.38-27.63 15.95-28.8 12.75-28.8L12.75-28.8 8.7-28.8 8.6-18.05 14.1-17.9Q18.8-19 18.8-23.85L18.8-23.85ZM12.35-3.15Q16.45-3.15 18.65-4.7 20.85-6.25 20.85-9.15L20.85-9.15Q20.85-14.05 14.7-14.75L14.7-14.75 8.55-14.7 8.5-10 8.65-3.3Q10.6-3.15 12.35-3.15L12.35-3.15ZM42-24.9L50.75 0 47 0 46.4-2.7 45.1-6.4 39.15-6.45 33.85-6.4 32.5-2.9 31.8 0 28.1 0 37.7-24.9 42-24.9ZM39.45-9.4L44.05-9.45 39.9-21.25 39.6-21.25 35.05-9.45 39.45-9.4ZM68.4-10.05Q71.45-5.4 75.15-0.9L75.15-0.9 75.1-0.4Q73 0.25 71.65 0.35L71.65 0.35 71-0.05Q67.2-5.8 65.25-9.1L65.25-9.1 60.55-9.05 60.55-7.8 60.65 0 56.95 0 57.1-7.5 56.95-24.9 65.45-24.95Q69.4-24.95 71.52-23.1 73.65-21.25 73.65-17.75L73.65-17.75Q73.65-15.2 72.27-13.2 70.9-11.2 68.4-10.05L68.4-10.05ZM60.65-21.9L60.6-12.15 65.3-12Q69.75-13.25 69.75-17.45L69.75-17.45Q69.75-19.65 68.45-20.75 67.15-21.85 64.5-21.95L64.5-21.95 60.65-21.9ZM92.39-24.9L101.14 0 97.39 0 96.79-2.7 95.49-6.4 89.54-6.45 84.24-6.4 82.89-2.9 82.19 0 78.49 0 88.09-24.9 92.39-24.9ZM89.84-9.4L94.44-9.45 90.29-21.25 89.99-21.25 85.44-9.45 89.84-9.4ZM128.14-25L127.99-7.45 128.04 0 124.04 0 110.94-19 110.69-19 110.64-8.3 110.74 0 107.34 0 107.49-7.35 107.39-24.9 111.34-24.9 124.44-5.9 124.79-5.9 124.69-24.75 128.14-25ZM170.39-32.15L170.14-9.4 170.24 0 166.04 0 149.44-25.65 149.19-25.65 149.14-10.55 149.19 0 145.59 0 145.74-9.5 145.64-32.05 149.79-32.05 166.34-6.4 166.69-6.4 166.64-31.85 170.39-32.15ZM190.18-24.9L198.93 0 195.18 0 194.58-2.7 193.28-6.4 187.33-6.45 182.03-6.4 180.68-2.9 179.98 0 176.28 0 185.88-24.9 190.18-24.9ZM187.63-9.4L192.23-9.45 188.08-21.25 187.78-21.25 183.23-9.45 187.63-9.4ZM216.58-10.05Q219.63-5.4 223.33-0.9L223.33-0.9 223.28-0.4Q221.18 0.25 219.83 0.35L219.83 0.35 219.18-0.05Q215.38-5.8 213.43-9.1L213.43-9.1 208.73-9.05 208.73-7.8 208.83 0 205.13 0 205.28-7.5 205.13-24.9 213.63-24.95Q217.58-24.95 219.71-23.1 221.83-21.25 221.83-17.75L221.83-17.75Q221.83-15.2 220.46-13.2 219.08-11.2 216.58-10.05L216.58-10.05ZM208.83-21.9L208.78-12.15 213.48-12Q217.93-13.25 217.93-17.45L217.93-17.45Q217.93-19.65 216.63-20.75 215.33-21.85 212.68-21.95L212.68-21.95 208.83-21.9ZM241.38-10.05Q244.43-5.4 248.13-0.9L248.13-0.9 248.08-0.4Q245.98 0.25 244.63 0.35L244.63 0.35 243.98-0.05Q240.18-5.8 238.23-9.1L238.23-9.1 233.53-9.05 233.53-7.8 233.63 0 229.93 0 230.08-7.5 229.93-24.9 238.43-24.95Q242.38-24.95 244.5-23.1 246.63-21.25 246.63-17.75L246.63-17.75Q246.63-15.2 245.25-13.2 243.88-11.2 241.38-10.05L241.38-10.05ZM233.63-21.9L233.58-12.15 238.28-12Q242.73-13.25 242.73-17.45L242.73-17.45Q242.73-19.65 241.43-20.75 240.13-21.85 237.48-21.95L237.48-21.95 233.63-21.9ZM265.38-24.9L274.13 0 270.38 0 269.78-2.7 268.48-6.4 262.53-6.45 257.23-6.4 255.88-2.9 255.18 0 251.48 0 261.08-24.9 265.38-24.9ZM262.83-9.4L267.43-9.45 263.28-21.25 262.98-21.25 258.43-9.45 262.83-9.4ZM298.72-24.9L289.22 0 284.77 0 276.07-24.9 279.92-24.9 280.52-22.15 286.97-3.7 287.22-3.7 294.37-22 294.97-24.9 298.72-24.9ZM323.52-24.9L323.37-12.25 323.37-8.65Q323.42-4.4 320.8-2.05 318.17 0.3 313.27 0.3L313.27 0.3Q308.42 0.3 305.87-2.02 303.32-4.35 303.42-8.65L303.42-8.65 303.47-12.45 303.42-24.9 307.17-24.9 306.97-9.25Q306.92-6.1 308.55-4.5 310.17-2.9 313.42-2.9L313.42-2.9Q316.62-2.9 318.27-4.5 319.92-6.1 319.87-9.25L319.87-9.25 319.72-24.9 323.52-24.9ZM344.87-3.15L345.07-2.8 344.82 0 331.57 0 331.72-7.5 331.57-24.9 335.32-24.9 335.17-7.8 335.27-3.15 344.87-3.15ZM361.17-24.9L369.92 0 366.17 0 365.57-2.7 364.27-6.4 358.32-6.45 353.02-6.4 351.67-2.9 350.97 0 347.27 0 356.87-24.9 361.17-24.9ZM358.62-9.4L363.22-9.45 359.07-21.25 358.77-21.25 354.22-9.45 358.62-9.4Z" opacity="1" transform="matrix(1,0,0,1,0,0)" fill="black" class="wordmark-text-0" id="SvgjsPath1025"></path></svg></g></svg></g></svg></g></svg></g><g><svg viewBox="0 0 118.03391569117987 92.12378647686832" height="92.12378647686832" width="118.03391569117987"><g><svg xmlns="http://www.w3.org/2000/svg" xmlns:xlink="http://www.w3.org/1999/xlink" version="1.1" x="0" y="0" viewBox="5.6 14.8 88.7 69.22908396835325" enable-background="new 0 0 100 100" xml:space="preserve" height="92.12378647686832" width="118.03391569117987" class="icon-icon-0" data-fill-palette-color="accent" id="SvgjsSvg1024"><g fill="black"><path d="M50.2 84H29.4C28.9 83.9 28 84.4 28 83.3 28 82.4 28.8 82.7 29.3 82.7 29.9 82.6 30.5 82.7 31.1 82.7 35 82.7 36.8 81.4 38 77.7 38.3 76.9 38.5 76 38.5 75.1 38.5 74.3 38.9 73.9 39.7 73.9H61.4C62.1 73.9 62.4 74.2 62.5 74.8 62.8 76.5 63.1 78.1 64 79.7 65 81.6 66.6 82.5 68.7 82.6H71.6C72.1 82.6 72.5 82.6 72.5 83.3 72.5 83.9 72.1 84 71.6 84z" fill="black"></path><path d="M49.9 14.8H91.7C93.7 14.8 94.3 15.4 94.3 17.4V69.9C94.3 72.1 93.7 72.7 91.5 72.7H8.4C6.2 72.7 5.6 72.1 5.6 69.9V17.4C5.6 15.2 6 14.8 8.2 14.8zM49.7 19H10.9C9.7 19 9.3 19.3 9.3 20.6V60.5C9.3 61.8 9.7 62.1 10.9 62.1H88.2C89.4 62.1 89.8 61.8 89.8 60.5V20.6C89.8 19.3 89.4 19 88.2 19z" fill="black"></path><path d="M46.3 53.5C43.9 53.5 43.9 53.5 44.5 51.1 46.6 43.8 48.7 36.6 50.8 29.3 51.1 28.3 51.4 27.9 52.6 27.9 56 28 56 28 55 31.3 53 38 51.1 44.7 49.1 51.4 48.5 53.5 48.5 53.5 46.3 53.5" fill="black"></path><path d="M34.7 41C37 41.9 39.2 42.9 41.5 43.7 42.6 44.1 43.1 44.6 43 45.8 42.9 48.4 43 48.4 40.6 47.4L30.4 43.2C28.5 42.4 28.5 42.4 28.5 40.4 28.5 39.7 28.7 39.3 29.4 39 33.6 37.3 37.8 35.5 42 33.8 42.7 33.5 42.9 33.6 43 34.4 43.2 37.4 43.2 37.4 40.5 38.5 38.6 39.2 36.8 40 34.9 40.8 34.8 40.7 34.8 40.8 34.7 41" fill="black"></path><path d="M65.3 40.9C63.2 40 61.3 39.2 59.5 38.5 59.4 38.5 59.3 38.5 59.2 38.4 57 37.5 56.4 36.4 56.9 34 57.1 33.2 57.4 33.6 57.8 33.8 60.3 34.8 62.8 35.9 65.3 36.9 66.9 37.6 68.5 38.3 70.1 38.9 71.3 39.3 71 40.3 71.1 41.1S71 42.4 70.1 42.8C66.1 44.4 62.2 46.1 58.2 47.7 56.9 48.3 57 48.2 56.8 46.8 56.6 45 57.1 43.9 59 43.4 61.1 42.8 63 41.9 65.3 40.9" fill="black"></path></g></svg></g></svg></g></svg></g><defs><mask></mask></defs></svg><rect width="395.52" height="69.8208773447385" fill="black" stroke="none" visibility="hidden"></rect></g></mask></svg><rect width="395.52" height="69.8208773447385" fill="black" stroke="none" visibility="hidden"></rect></g></mask><linearGradient x1="0.054" x2="0.941" y1="0.5" y2="0.5" id="7ab3003a-761b-46d9-a78a-7d01924409f1"><stop stop-color="#864d25" offset="0"></stop><stop stop-color="#f1c4b3" offset="0.498"></stop><stop stop-color="#864d25" offset="1"></stop></linearGradient><rect width="395.52" height="69.8208773447385" fill="url(#7ab3003a-761b-46d9-a78a-7d01924409f1)" mask="url(#2ece1136-8217-4cd0-8214-540c25515cb2)" data-fill-palette-color="accent"></rect></svg><rect width="395.52" height="69.8208773447385" fill="none" stroke="none" visibility="hidden"></rect></g></svg></g></svg>